<?xml version="1.0" encoding="UTF-8" standalone="no"?>
<svg
   xmlns:dc="http://purl.org/dc/elements/1.1/"
   xmlns:cc="http://creativecommons.org/ns#"
   xmlns:rdf="http://www.w3.org/1999/02/22-rdf-syntax-ns#"
   xmlns:svg="http://www.w3.org/2000/svg"
   xmlns="http://www.w3.org/2000/svg"
   xmlns:sodipodi="http://sodipodi.sourceforge.net/DTD/sodipodi-0.dtd"
   xmlns:inkscape="http://www.inkscape.org/namespaces/inkscape"
   id="svg2"
   version="1.1"
   inkscape:version="0.91 r13725"
   sodipodi:docname="fourier-analysis.svg">
  <metadata
     id="metadata8">
    <rdf:RDF>
      <cc:Work
         rdf:about="">
        <dc:format>image/svg+xml</dc:format>
        <dc:type
           rdf:resource="http://purl.org/dc/dcmitype/StillImage" />
      </cc:Work>
    </rdf:RDF>
  </metadata>
  <defs
     id="defs6" />
  <sodipodi:namedview
     pagecolor="#ffffff"
     bordercolor="#666666"
     borderopacity="1"
     objecttolerance="10"
     gridtolerance="10"
     guidetolerance="10"
     inkscape:pageopacity="0"
     inkscape:pageshadow="2"
     inkscape:window-width="1276"
     inkscape:window-height="796"
     id="namedview4"
     showgrid="false"
     inkscape:zoom="13.350176"
     inkscape:cx="51.604612"
     inkscape:cy="69.981027"
     inkscape:window-x="0"
     inkscape:window-y="0"
     inkscape:window-maximized="1"
     inkscape:current-layer="svg2" />
  <path
     style="fill:none;fill-rule:evenodd;stroke:#000000;stroke-width:0.2;stroke-linecap:butt;stroke-linejoin:miter;stroke-miterlimit:4;stroke-dasharray:none;stroke-opacity:1"
     d="m 15.572034,18.855932 c 0.06851,0.01713 0.141243,0 0.211864,0 l 0.741526,0 0.211864,0 c 0.03531,0 0.07655,0.01959 0.105932,0 0.231142,-0.154095 0.24665,-0.317166 0.423729,-0.529661 0.09591,-0.115088 0.22189,-0.202709 0.317797,-0.317797 0.0815,-0.09781 0.141243,-0.211864 0.211864,-0.317796 0.07062,-0.105932 0.148699,-0.207257 0.211865,-0.317797 0.07835,-0.137108 0.124269,-0.292336 0.211864,-0.423729 0.0554,-0.0831 0.149474,-0.133876 0.211864,-0.211864 0.534529,-0.668161 -0.08782,-0.01811 0.423729,-0.529661 l 0.211865,-0.211864 c 0.07062,-0.07062 0.156464,-0.128765 0.211864,-0.211865 0.0876,-0.131393 0.120079,-0.295228 0.211864,-0.423729 0.08708,-0.121906 0.227911,-0.197948 0.317797,-0.317796 0.15505,-0.206733 0.344724,-0.625533 0.529661,-0.847458 0.09591,-0.115088 0.211864,-0.211864 0.317797,-0.317796 0.03593,-0.03593 0.474942,-0.502302 0.529661,-0.529661 0.03158,-0.01579 0.07062,0 0.105932,0 l 0.211864,0 0.95339,0 0.635593,0 c 0.07062,0 0.144867,-0.02233 0.211865,0 0.423729,0.141242 0.03531,0.03531 0.317796,0.317796 0.09003,0.09003 0.208626,0.146362 0.317797,0.211865 0.13541,0.08125 0.282486,0.141242 0.423729,0.211864 0.141243,0.07062 0.273918,0.161927 0.423729,0.211864 0.0335,0.01117 0.07243,-0.01117 0.105932,0 0.767311,0.255771 -0.167014,-0.03054 0.317796,0.211865 0.03158,0.01579 0.07435,-0.01579 0.105933,0 0.09389,0.04695 0.221365,0.253509 0.317796,0.317796 0.210306,0.140204 0.271,0.06325 0.423729,0.317797 0.05745,0.09575 0.04399,0.224888 0.105932,0.317797 0.0831,0.12465 0.24347,0.187724 0.317797,0.317796 0.07223,0.126408 0.04082,0.293509 0.105932,0.423729 0.04467,0.08933 0.15194,0.131965 0.211864,0.211864 0.04737,0.06317 0.07062,0.141243 0.105933,0.211865 0.07062,0.105932 0.132331,0.21838 0.211864,0.317796 0.124781,0.155977 0.282486,0.282486 0.423729,0.423729 l 0.211864,0.211865 c 0.07062,0.07062 0.131966,0.15194 0.211865,0.211864 0.06317,0.04737 0.146168,0.06213 0.211864,0.105932 0.04155,0.0277 0.05749,0.09382 0.105932,0.105932 0.10277,0.02569 0.213922,-0.02078 0.317797,0 0.07742,0.01549 0.141243,0.07062 0.211864,0.105933 0.141243,0.07062 0.273918,0.161927 0.423729,0.211864 0.067,0.02233 0.148699,-0.03158 0.211865,0 0.04467,0.02233 0.05856,0.09014 0.105932,0.105932 0.06026,0.02009 0.42989,0 0.529661,0 0.05539,0 0.395875,0.01393 0.423729,0 0.04466,-0.02233 0.07062,-0.07062 0.105932,-0.105932 l 0.105932,-0.105932 c 0.141243,-0.141243 0.298947,-0.267752 0.423729,-0.423729 0.07953,-0.09942 0.130359,-0.219991 0.211864,-0.317797 0.09591,-0.115087 0.211865,-0.211864 0.317797,-0.317796 0.141243,-0.141243 0.272069,-0.293735 0.423729,-0.423729 0.09666,-0.08285 0.21999,-0.130359 0.317796,-0.211864 0.230176,-0.191813 0.401628,-0.448422 0.635593,-0.635594 0.06166,-0.04932 0.14416,-0.06531 0.211865,-0.105932 0.216975,0.02188 0.283614,-0.224387 0.423729,-0.317796 0.0657,-0.0438 0.148698,-0.05856 0.211864,-0.105933 0.0799,-0.05992 0.131965,-0.15194 0.211865,-0.211864 0.06317,-0.04737 0.148698,-0.05856 0.211864,-0.105932 0.0799,-0.05992 0.131965,-0.15194 0.211864,-0.211865 0.06317,-0.04737 0.14416,-0.06531 0.211865,-0.105932 0.109171,-0.0655 0.207256,-0.148698 0.317796,-0.211864 0.205663,-0.117521 0.432478,-0.195927 0.635594,-0.317797 0.109171,-0.0655 0.203922,-0.154927 0.317796,-0.211864 0.09987,-0.04994 0.211865,-0.07062 0.317797,-0.105932 0.211864,-0.07062 0.428241,-0.128924 0.635593,-0.211865 0.07331,-0.02932 0.141243,-0.07062 0.211864,-0.105932 0.07062,-0.07062 0.122535,-0.1672 0.211865,-0.211864 0.09475,-0.04737 0.211864,0 0.317796,0 l 1.059322,0 0.847458,0 0.211865,0 c 0.03531,0 0.07243,-0.01117 0.105932,0 0.268713,0.08957 0.442967,0.337034 0.635593,0.529661 0.07062,0.07062 0.149474,0.133876 0.211864,0.211864 0.159066,0.198832 0.282486,0.423729 0.423729,0.635593 0.07062,0.105932 0.161713,0.200776 0.211865,0.317797 0.05735,0.133818 0.06594,0.28374 0.105932,0.423729 0.03068,0.107366 0.07526,0.21043 0.105932,0.317796 0.100448,0.351568 0.08487,0.424039 0.211864,0.741526 0.0849,0.212254 0.166661,0.272592 0.317797,0.423728 0.03531,0.03531 0.07823,0.06438 0.105932,0.105933 0.0438,0.0657 0.06214,0.146168 0.105932,0.211864 0.02901,0.04352 0.274277,0.288783 0.317797,0.317797 0.0657,0.0438 0.146168,0.06213 0.211864,0.105932 0.09774,0.06516 0.114127,0.146706 0.211865,0.211864 0.76807,0.384035 -0.167494,-0.111662 0.317796,0.211865 0.76807,0.384035 -0.167493,-0.111663 0.317797,0.211864 0.131393,0.0876 0.292336,0.124269 0.423729,0.211865 0.04155,0.0277 0.05856,0.09014 0.105932,0.105932 0.067,0.02233 0.143352,-0.01713 0.211864,0 0.1532,0.0383 0.27053,0.173564 0.423729,0.211864 0.06851,0.01713 0.141243,0 0.211865,0 l 0.635593,0 c 0.110161,0 0.552265,0.02083 0.635593,0 0.0766,-0.01915 0.135265,-0.08678 0.211865,-0.105932 0.48481,-0.121203 -0.110145,0.21397 0.529661,-0.105932 0.113873,-0.05694 0.208625,-0.146362 0.317796,-0.211865 0.203116,-0.121869 0.429931,-0.200275 0.635593,-0.317796 0.11054,-0.06317 0.207257,-0.148699 0.317797,-0.211865 0.137108,-0.07835 0.282486,-0.141243 0.423729,-0.211864 0.141243,-0.105932 0.274011,-0.224223 0.423729,-0.317797 0.133911,-0.08369 0.297397,-0.117115 0.423728,-0.211864 0.159799,-0.119849 0.273404,-0.292194 0.423729,-0.423729 0.375216,-0.328313 0.57963,-0.367765 0.95339,-0.741525 0.124842,-0.124843 0.192954,-0.298887 0.317797,-0.423729 0.749443,-0.749443 0.428909,-0.295847 1.059322,-0.847458 0.01716,-0.01502 0.840939,-0.843112 0.847457,-0.847457 0.158218,-0.105479 0.359582,-0.126825 0.529661,-0.211865 0.02526,-0.01263 0.622711,-0.419434 0.635594,-0.423729 0.100496,-0.0335 0.213921,0.02078 0.317796,0 0.191731,0.06385 0.197016,-0.171604 0.317797,-0.211864 0.06198,-0.02066 0.544668,0 0.635593,0 0.09467,0 0.495903,-0.01688 0.529661,0 0.04467,0.02233 0.06438,0.07823 0.105932,0.105932 0.0657,0.0438 0.141243,0.07062 0.211865,0.105932 0.07062,0.07062 0.133876,0.149474 0.211864,0.211865 0.09942,0.07953 0.218381,0.132331 0.317797,0.211864 0.07799,0.06239 0.133876,0.149474 0.211864,0.211865 0.416638,0.33331 0.258141,0.07672 0.635593,0.529661 0.378762,0.454514 0.02324,0.213571 0.529661,0.635593 0.341583,0.284652 0.78153,0.422413 1.165255,0.635593 0.383299,0.212944 0.516353,0.308925 0.847457,0.529661 0.105932,0.07062 0.203923,0.154928 0.317797,0.211864 0.09987,0.04994 0.222047,0.04848 0.317796,0.105933 0.47623,0.285738 0.0023,0.10827 0.317797,0.423728 0.05583,0.05583 0.156033,0.0501 0.211864,0.105933 0.05583,0.05583 0.07062,0.141243 0.105933,0.211864 l 0.105932,0.211864 0.317796,0.635594 c 0.03531,0.07062 0.06213,0.146168 0.105933,0.211864 0.03215,0.04823 0.389492,0.406611 0.423728,0.423729 0.03158,0.01579 0.08096,-0.02497 0.105933,0 0.02497,0.02497 -0.02497,0.08096 0,0.105932 0.02497,0.02497 0.07062,0 0.105932,0 l 0.105932,0 0.95339,0 0.95339,0 c 0.105932,0 0.213305,0.01741 0.317796,0 0.349291,-0.05822 0.632326,-0.295303 0.95339,-0.423729 0.103676,-0.04147 0.211865,-0.07062 0.317797,-0.105932 0.105932,-0.03531 0.207653,-0.08757 0.317796,-0.105932 0.104491,-0.01741 0.213922,0.02078 0.317797,0 0.121073,-0.02421 0.47618,-0.285708 0.529661,-0.317797 0.158708,-0.09522 0.733072,-0.380834 0.847458,-0.423729 0.13632,-0.05112 0.290687,-0.0468 0.423728,-0.105932 0.18815,-0.08362 0.345503,-0.225717 0.529661,-0.317796 0.09987,-0.04994 0.215759,-0.06058 0.317797,-0.105933 0.592696,-0.26342 0.595772,-0.275054 1.059322,-0.635593 0.356944,-0.277623 0.702379,-0.569835 1.059322,-0.847457 0.139363,-0.108394 0.280061,-0.215177 0.423729,-0.317797 0.1036,-0.074 0.219991,-0.13036 0.317797,-0.211864 0.115087,-0.09591 0.204051,-0.220301 0.317796,-0.317797 0.268099,-0.229799 0.579359,-0.405794 0.847458,-0.635593 0.754905,-0.754906 -0.101818,0.06027 0.635593,-0.529661 0.07799,-0.06239 0.131965,-0.15194 0.211864,-0.211865 0.06317,-0.04737 0.141243,-0.07062 0.211865,-0.105932 0.07062,-0.03531 0.136959,-0.08096 0.211864,-0.105932 0.0335,-0.01117 0.07168,0.0086 0.105932,0 0.108329,-0.02708 0.209469,-0.07885 0.317797,-0.105932 0.03426,-0.0086 0.07062,0 0.105932,0 l 0.423729,0 c 0.09247,0 0.593808,-0.01393 0.635593,0 0.120782,0.04026 0.208626,0.146361 0.317797,0.211864 0.06771,0.04062 0.150209,0.05661 0.211864,0.105932 0.116983,0.09359 0.202709,0.22189 0.317797,0.317797 0.09781,0.0815 0.218381,0.132332 0.317797,0.211864 0.271289,0.217032 0.470235,0.524494 0.741525,0.741526 0.09942,0.07953 0.218381,0.132331 0.317797,0.211864 0.07799,0.06239 0.141243,0.141243 0.211864,0.211865 0.07062,0.07062 0.15194,0.131965 0.211864,0.211864 0.04738,0.06317 0.07062,0.141243 0.105933,0.211864 0.07062,0.141243 0.153216,0.277109 0.211864,0.423729 0.04147,0.103676 0.06446,0.214121 0.105932,0.317797 0.09,0.225008 0.179627,0.308589 0.317797,0.529661 0.109124,0.174599 0.217805,0.349676 0.317796,0.529661 0.07669,0.138042 0.12427,0.292336 0.211865,0.423729 0.106123,0.159184 0.735194,0.630668 0.741525,0.635593 0.435662,0.338848 0.881073,0.705367 1.377119,0.95339 0.170079,0.08504 0.359582,0.126825 0.529661,0.211864 0.184158,0.09208 0.355062,0.208673 0.529661,0.317797 0.107963,0.06748 0.200776,0.161712 0.317797,0.211864 0.133818,0.05735 0.28374,0.06594 0.423728,0.105932 0.107366,0.03068 0.214121,0.06446 0.317797,0.105933 0.07331,0.02932 0.141243,0.07062 0.211864,0.105932 0.07062,0.03531 0.146168,0.06213 0.211865,0.105932 0.04155,0.0277 0.05856,0.09014 0.105932,0.105932 0.05369,0.0179 0.654927,0 0.741525,0 0.282486,0 0.571699,0.06128 0.847458,0 0.124283,-0.02762 0.203923,-0.154927 0.317797,-0.211864 0.03158,-0.01579 0.07435,0.01579 0.105932,0 0.04466,-0.02233 0.06127,-0.0836 0.105932,-0.105932 0.03158,-0.01579 0.07062,0 0.105932,0 l 0.105932,0"
     id="path4140"
     inkscape:connector-curvature="0"
     sodipodi:nodetypes="cscscccscssssccscsssccscsccccscsscccccsssccccccccscssccsssccsccccssccccccsccscssssccsssssccccscccsscccsccccssssccsccsscscccsssssccccccscsccsccscsccccscccssscscccccccssccccsccsccscssscsscscccccscsccsc" />
  <g
     id="g4208"
     transform="matrix(0.54219292,0,0,1.0033135,6.3686426,-0.08528458)">
    <g
       inkscape:transform-center-y="-19.707382"
       inkscape:transform-center-x="-19.357457"
       style="stroke:#000000;stroke-opacity:1"
       transform="matrix(1.0225234,0,0,1.0000349,42.760388,1.0847674)"
       id="g4137-3-6">
      <rect
         style="fill:#ffff00;fill-opacity:1;stroke:#000000;stroke-width:0.2192618;stroke-miterlimit:4;stroke-dasharray:none;stroke-opacity:1"
         id="rect4135-6-2"
         width="70.373512"
         height="9.1935329"
         x="-28.099445"
         y="20.086374" />
    </g>
    <path
       sodipodi:nodetypes="cscscccscssssccscsssccscsccccscsscccccsssccccccccscssccsssccsccccssccccccsccscssssccsssssccccscccsscccsccccssssccsccsscscccsssssccccccscsccsccscsccccscccssscscccccccssccccsccsccscssscsscscccccscsccsc"
       inkscape:connector-curvature="0"
       id="path4140-1"
       d="m 13.979007,27.629717 c 0.06851,0.01713 0.141243,0 0.211864,0 l 0.741526,0 0.211864,0 c 0.03531,0 0.07655,0.01959 0.105932,0 0.231142,-0.154095 0.24665,-0.317166 0.423729,-0.529661 0.09591,-0.115088 0.22189,-0.202709 0.317797,-0.317797 0.0815,-0.09781 0.141243,-0.211864 0.211864,-0.317796 0.07062,-0.105932 0.148699,-0.207257 0.211865,-0.317797 0.07835,-0.137108 0.124269,-0.292336 0.211864,-0.423729 0.0554,-0.0831 0.149474,-0.133876 0.211864,-0.211864 0.534529,-0.668161 -0.08782,-0.01811 0.423729,-0.529661 l 0.211865,-0.211864 c 0.07062,-0.07062 0.156464,-0.128765 0.211864,-0.211865 0.0876,-0.131393 0.120079,-0.295228 0.211864,-0.423729 0.08708,-0.121906 0.227911,-0.197948 0.317797,-0.317796 0.15505,-0.206733 0.344724,-0.625533 0.529661,-0.847458 0.09591,-0.115088 0.211864,-0.211864 0.317797,-0.317796 0.03593,-0.03593 0.474942,-0.502302 0.529661,-0.529661 0.03158,-0.01579 0.07062,0 0.105932,0 l 0.211864,0 0.95339,0 0.635593,0 c 0.07062,0 0.144867,-0.02233 0.211865,0 0.423729,0.141242 0.03531,0.03531 0.317796,0.317796 0.09003,0.09003 0.208626,0.146362 0.317797,0.211865 0.13541,0.08125 0.282486,0.141242 0.423729,0.211864 0.141243,0.07062 0.273918,0.161927 0.423729,0.211864 0.0335,0.01117 0.07243,-0.01117 0.105932,0 0.767311,0.255771 -0.167014,-0.03054 0.317796,0.211865 0.03158,0.01579 0.07435,-0.01579 0.105933,0 0.09389,0.04695 0.221365,0.253509 0.317796,0.317796 0.210306,0.140204 0.271,0.06325 0.423729,0.317797 0.05745,0.09575 0.04399,0.224888 0.105932,0.317797 0.0831,0.12465 0.24347,0.187724 0.317797,0.317796 0.07223,0.126408 0.04082,0.293509 0.105932,0.423729 0.04467,0.08933 0.15194,0.131965 0.211864,0.211864 0.04737,0.06317 0.07062,0.141243 0.105933,0.211865 0.07062,0.105932 0.132331,0.21838 0.211864,0.317796 0.124781,0.155977 0.282486,0.282486 0.423729,0.423729 l 0.211864,0.211865 c 0.07062,0.07062 0.131966,0.15194 0.211865,0.211864 0.06317,0.04737 0.146168,0.06213 0.211864,0.105932 0.04155,0.0277 0.05749,0.09382 0.105932,0.105932 0.10277,0.02569 0.213922,-0.02078 0.317797,0 0.07742,0.01549 0.141243,0.07062 0.211864,0.105933 0.141243,0.07062 0.273918,0.161927 0.423729,0.211864 0.067,0.02233 0.148699,-0.03158 0.211865,0 0.04467,0.02233 0.05856,0.09014 0.105932,0.105932 0.06026,0.02009 0.42989,0 0.529661,0 0.05539,0 0.395875,0.01393 0.423729,0 0.04466,-0.02233 0.07062,-0.07062 0.105932,-0.105932 l 0.105932,-0.105932 c 0.141243,-0.141243 0.298947,-0.267752 0.423729,-0.423729 0.07953,-0.09942 0.130359,-0.219991 0.211864,-0.317797 0.09591,-0.115087 0.211865,-0.211864 0.317797,-0.317796 0.141243,-0.141243 0.272069,-0.293735 0.423729,-0.423729 0.09666,-0.08285 0.21999,-0.130359 0.317796,-0.211864 0.230176,-0.191813 0.401628,-0.448422 0.635593,-0.635594 0.06166,-0.04932 0.14416,-0.06531 0.211865,-0.105932 0.216975,0.02188 0.283614,-0.224387 0.423729,-0.317796 0.0657,-0.0438 0.148698,-0.05856 0.211864,-0.105933 0.0799,-0.05992 0.131965,-0.15194 0.211865,-0.211864 0.06317,-0.04737 0.148698,-0.05856 0.211864,-0.105932 0.0799,-0.05992 0.131965,-0.15194 0.211864,-0.211865 0.06317,-0.04737 0.14416,-0.06531 0.211865,-0.105932 0.109171,-0.0655 0.207256,-0.148698 0.317796,-0.211864 0.205663,-0.117521 0.432478,-0.195927 0.635594,-0.317797 0.109171,-0.0655 0.203922,-0.154927 0.317796,-0.211864 0.09987,-0.04994 0.211865,-0.07062 0.317797,-0.105932 0.211864,-0.07062 0.428241,-0.128924 0.635593,-0.211865 0.07331,-0.02932 0.141243,-0.07062 0.211864,-0.105932 0.07062,-0.07062 0.122535,-0.1672 0.211865,-0.211864 0.09475,-0.04737 0.211864,0 0.317796,0 l 1.059322,0 0.847458,0 0.211865,0 c 0.03531,0 0.07243,-0.01117 0.105932,0 0.268713,0.08957 0.442967,0.337034 0.635593,0.529661 0.07062,0.07062 0.149474,0.133876 0.211864,0.211864 0.159066,0.198832 0.282486,0.423729 0.423729,0.635593 0.07062,0.105932 0.161713,0.200776 0.211865,0.317797 0.05735,0.133818 0.06594,0.28374 0.105932,0.423729 0.03068,0.107366 0.07526,0.21043 0.105932,0.317796 0.100448,0.351568 0.08487,0.424039 0.211864,0.741526 0.0849,0.212254 0.166661,0.272592 0.317797,0.423728 0.03531,0.03531 0.07823,0.06438 0.105932,0.105933 0.0438,0.0657 0.06214,0.146168 0.105932,0.211864 0.02901,0.04352 0.274277,0.288783 0.317797,0.317797 0.0657,0.0438 0.146168,0.06213 0.211864,0.105932 0.09774,0.06516 0.114127,0.146706 0.211865,0.211864 0.76807,0.384035 -0.167494,-0.111662 0.317796,0.211865 0.76807,0.384035 -0.167493,-0.111663 0.317797,0.211864 0.131393,0.0876 0.292336,0.124269 0.423729,0.211865 0.04155,0.0277 0.05856,0.09014 0.105932,0.105932 0.067,0.02233 0.143352,-0.01713 0.211864,0 0.1532,0.0383 0.27053,0.173564 0.423729,0.211864 0.06851,0.01713 0.141243,0 0.211865,0 l 0.635593,0 c 0.110161,0 0.552265,0.02083 0.635593,0 0.0766,-0.01915 0.135265,-0.08678 0.211865,-0.105932 0.48481,-0.121203 -0.110145,0.21397 0.529661,-0.105932 0.113873,-0.05694 0.208625,-0.146362 0.317796,-0.211865 0.203116,-0.121869 0.429931,-0.200275 0.635593,-0.317796 0.11054,-0.06317 0.207257,-0.148699 0.317797,-0.211865 0.137108,-0.07835 0.282486,-0.141243 0.423729,-0.211864 0.141243,-0.105932 0.274011,-0.224223 0.423729,-0.317797 0.133911,-0.08369 0.297397,-0.117115 0.423728,-0.211864 0.159799,-0.119849 0.273404,-0.292194 0.423729,-0.423729 0.375216,-0.328313 0.57963,-0.367765 0.95339,-0.741525 0.124842,-0.124843 0.192954,-0.298887 0.317797,-0.423729 0.749443,-0.749443 0.428909,-0.295847 1.059322,-0.847458 0.01716,-0.01502 0.840939,-0.843112 0.847457,-0.847457 0.158218,-0.105479 0.359582,-0.126825 0.529661,-0.211865 0.02526,-0.01263 0.622711,-0.419434 0.635594,-0.423729 0.100496,-0.0335 0.213921,0.02078 0.317796,0 0.191731,0.06385 0.197016,-0.171604 0.317797,-0.211864 0.06198,-0.02066 0.544668,0 0.635593,0 0.09467,0 0.495903,-0.01688 0.529661,0 0.04467,0.02233 0.06438,0.07823 0.105932,0.105932 0.0657,0.0438 0.141243,0.07062 0.211865,0.105932 0.07062,0.07062 0.133876,0.149474 0.211864,0.211865 0.09942,0.07953 0.218381,0.132331 0.317797,0.211864 0.07799,0.06239 0.133876,0.149474 0.211864,0.211865 0.416638,0.33331 0.258141,0.07672 0.635593,0.529661 0.378762,0.454514 0.02324,0.213571 0.529661,0.635593 0.341583,0.284652 0.78153,0.422413 1.165255,0.635593 0.383299,0.212944 0.516353,0.308925 0.847457,0.529661 0.105932,0.07062 0.203923,0.154928 0.317797,0.211864 0.09987,0.04994 0.222047,0.04848 0.317796,0.105933 0.47623,0.285738 0.0023,0.10827 0.317797,0.423728 0.05583,0.05583 0.156033,0.0501 0.211864,0.105933 0.05583,0.05583 0.07062,0.141243 0.105933,0.211864 l 0.105932,0.211864 0.317796,0.635594 c 0.03531,0.07062 0.06213,0.146168 0.105933,0.211864 0.03215,0.04823 0.389492,0.406611 0.423728,0.423729 0.03158,0.01579 0.08096,-0.02497 0.105933,0 0.02497,0.02497 -0.02497,0.08096 0,0.105932 0.02497,0.02497 0.07062,0 0.105932,0 l 0.105932,0 0.95339,0 0.95339,0 c 0.105932,0 0.213305,0.01741 0.317796,0 0.349291,-0.05822 0.632326,-0.295303 0.95339,-0.423729 0.103676,-0.04147 0.211865,-0.07062 0.317797,-0.105932 0.105932,-0.03531 0.207653,-0.08757 0.317796,-0.105932 0.104491,-0.01741 0.213922,0.02078 0.317797,0 0.121073,-0.02421 0.47618,-0.285708 0.529661,-0.317797 0.158708,-0.09522 0.733072,-0.380834 0.847458,-0.423729 0.13632,-0.05112 0.290687,-0.0468 0.423728,-0.105932 0.18815,-0.08362 0.345503,-0.225717 0.529661,-0.317796 0.09987,-0.04994 0.215759,-0.06058 0.317797,-0.105933 0.592696,-0.26342 0.595772,-0.275054 1.059322,-0.635593 0.356944,-0.277623 0.702379,-0.569835 1.059322,-0.847457 0.139363,-0.108394 0.280061,-0.215177 0.423729,-0.317797 0.1036,-0.074 0.219991,-0.13036 0.317797,-0.211864 0.115087,-0.09591 0.204051,-0.220301 0.317796,-0.317797 0.268099,-0.229799 0.579359,-0.405794 0.847458,-0.635593 0.754905,-0.754906 -0.101818,0.06027 0.635593,-0.529661 0.07799,-0.06239 0.131965,-0.15194 0.211864,-0.211865 0.06317,-0.04737 0.141243,-0.07062 0.211865,-0.105932 0.07062,-0.03531 0.136959,-0.08096 0.211864,-0.105932 0.0335,-0.01117 0.07168,0.0086 0.105932,0 0.108329,-0.02708 0.209469,-0.07885 0.317797,-0.105932 0.03426,-0.0086 0.07062,0 0.105932,0 l 0.423729,0 c 0.09247,0 0.593808,-0.01393 0.635593,0 0.120782,0.04026 0.208626,0.146361 0.317797,0.211864 0.06771,0.04062 0.150209,0.05661 0.211864,0.105932 0.116983,0.09359 0.202709,0.22189 0.317797,0.317797 0.09781,0.0815 0.218381,0.132332 0.317797,0.211864 0.271289,0.217032 0.470235,0.524494 0.741525,0.741526 0.09942,0.07953 0.218381,0.132331 0.317797,0.211864 0.07799,0.06239 0.141243,0.141243 0.211864,0.211865 0.07062,0.07062 0.15194,0.131965 0.211864,0.211864 0.04738,0.06317 0.07062,0.141243 0.105933,0.211864 0.07062,0.141243 0.153216,0.277109 0.211864,0.423729 0.04147,0.103676 0.06446,0.214121 0.105932,0.317797 0.09,0.225008 0.179627,0.308589 0.317797,0.529661 0.109124,0.174599 0.217805,0.349676 0.317796,0.529661 0.07669,0.138042 0.12427,0.292336 0.211865,0.423729 0.106123,0.159184 0.735194,0.630668 0.741525,0.635593 0.435662,0.338848 0.881073,0.705367 1.377119,0.95339 0.170079,0.08504 0.359582,0.126825 0.529661,0.211864 0.184158,0.09208 0.355062,0.208673 0.529661,0.317797 0.107963,0.06748 0.200776,0.161712 0.317797,0.211864 0.133818,0.05735 0.28374,0.06594 0.423728,0.105932 0.107366,0.03068 0.214121,0.06446 0.317797,0.105933 0.07331,0.02932 0.141243,0.07062 0.211864,0.105932 0.07062,0.03531 0.146168,0.06213 0.211865,0.105932 0.04155,0.0277 0.05856,0.09014 0.105932,0.105932 0.05369,0.0179 0.654927,0 0.741525,0 0.282486,0 0.571699,0.06128 0.847458,0 0.124283,-0.02762 0.203923,-0.154927 0.317797,-0.211864 0.03158,-0.01579 0.07435,0.01579 0.105932,0 0.04466,-0.02233 0.06127,-0.0836 0.105932,-0.105932 0.03158,-0.01579 0.07062,0 0.105932,0 l 0.105932,0"
       style="fill:none;fill-rule:evenodd;stroke:#000000;stroke-width:0.2;stroke-linecap:butt;stroke-linejoin:miter;stroke-miterlimit:4;stroke-dasharray:none;stroke-opacity:1" />
  </g>
</svg>
